#!OML:ASF E:\Steps\Project 1\Capture day 1\Session 2\Subject.ASF
:FULLY-SPECIFIED
:DEGREES
148
root 7.50573 16.2534 30.9253 -154.111 -2.39394 178.323
lowerback -27.6895 -2.24524 -5.70174
upperback -1.46947 -1.74156 0.182612
thorax 13.9874 -1.39494 2.77057
lowerneck -3.82728 -4.29419 -1.17601
upperneck 21.1996 -4.9885 2.94026
head 7.2126 -1.68812 0.855524
rclavicle -1.14301e-014 3.97569e-016
rhumerus -37.7775 -21.9969 -75.6698
rradius 31.7868
rwrist 1.75544
rhand -7.09936 -58.5074
rfingers 7.12502
rthumb 18.7753 -87.6213
lclavicle -1.14301e-014 3.97569e-016
lhumerus -28.4809 7.13924 80.4807
lradius 22.7099
lwrist -4.5071
lhand -21.5839 -13.6105
lfingers 7.12502
lthumb 4.81055 16.3149
rfemur -23.5576 7.37651 21.2378
rtibia 9.73855
rfoot -21.6524 -8.01748
rtoes -31.0361
lfemur -25.9672 -8.50205 -18.1062
ltibia 16.1047
lfoot -13.1346 6.2342
ltoes -40.1514
149
root 7.51972 16.2505 30.9201 -154.128 -2.2072 178.273
lowerback -27.6293 -2.24521 -5.71366
upperback -1.47327 -1.74195 0.18429
thorax 13.9506 -1.39507 2.7805
lowerneck -3.80648 -4.29339 -1.3662
upperneck 21.329 -4.95199 2.92573
head 7.25526 -1.67985 0.886124
rclavicle -1.55549e-014 -1.72943e-014
rhumerus -37.8774 -21.8307 -75.654
rradius 31.8314
rwrist 1.84198
rhand -6.96004 -59.0065
rfingers 7.12502
rthumb 18.9093 -88.1074
lclavicle -1.55549e-014 -1.72943e-014
lhumerus -28.6106 7.65593 80.2797
lradius 22.5439
lwrist -4.6029
lhand -21.6561 -13.7236
lfingers 7.12502
lthumb 4.74082 16.2033
rfemur -23.5315 7.43402 21.2187
rtibia 9.75175
rfoot -21.7948 -7.79241
rtoes -30.5156
lfemur -26.2971 -8.4743 -18.1616
ltibia 16.9639
lfoot -13.4041 6.31128
ltoes -39.3838
150
root 7.53018 16.249 30.9119 -154.204 -2.07514 178.144
lowerback -27.6363 -2.21492 -5.74476
upperback -1.36309 -1.66186 0.0926466
thorax 14.0765 -1.35639 2.72247
lowerneck -3.81843 -4.3535 -1.42188
upperneck 21.4037 -5.03132 2.96602
head 7.28648 -1.71495 0.902519
rclavicle -9.14409e-015 -1.88845e-014
rhumerus -37.8885 -21.9168 -75.6899
rradius 31.8271
rwrist 2.02429
rhand -6.51238 -58.6719
rfingers 7.12502
rthumb 19.3397 -87.7302
lclavicle -9.14409e-015 -1.88845e-014
lhumerus -28.5275 7.85704 80.1318
lradius 22.41
lwrist -4.71947
lhand -21.7809 -13.4665
lfingers 7.12502
lthumb 4.62035 16.4631
rfemur -23.3856 7.32018 21.1177
rtibia 9.71088
rfoot -21.7473 -7.48181
rtoes -30.4584
lfemur -26.5676 -8.54125 -18.3135
ltibia 17.7613
lfoot -13.6297 6.42872
ltoes -37.898
151
root 7.54249 16.248 30.9067 -154.26 -2.0273 178.034
lowerback -27.6404 -2.19781 -5.78688
upperback -1.24961 -1.59626 0.012913
thorax 14.2074 -1.32529 2.67897
lowerneck -3.86902 -4.37122 -1.33349
upperneck 21.3507 -5.07183 2.94663
head 7.27608 -1.73384 0.877
rclavicle 4.77083e-015 -1.33186e-014
rhumerus -37.9584 -22.1536 -75.599
rradius 31.706
rwrist 2.10935
rhand -6.18536 -56.5624
rfingers 7.12502
rthumb 19.6542 -85.5889
lclavicle 4.77083e-015 -1.33186e-014
lhumerus -28.4604 7.74752 80.053
lradius 22.3775
lwrist -4.69807
lhand -21.8035 -13.6336
lfingers 7.12502
lthumb 4.59849 16.2964
rfemur -23.3257 7.14392 21.0563
rtibia 9.7267
rfoot -21.581 -7.26241
rtoes -30.8371
lfemur -26.934 -8.68188 -18.3882
ltibia 18.5932
lfoot -13.7656 6.44597
ltoes -37.7171
152
root 7.55643 16.2464 30.8999 -154.292 -1.97815 177.892
lowerback -27.6046 -2.26669 -5.90731
upperback -1.20812 -1.64118 -0.00945892
thorax 14.2447 -1.35189 2.70486
lowerneck -3.76738 -4.27497 -1.28407
upperneck 21.1691 -4.9431 2.88171
head 7.19235 -1.68441 0.858572
rclavicle -2.03754e-015 -1.09332e-014
rhumerus -38.0418 -21.9504 -75.6545
rradius 31.9005
rwrist 2.09404
rhand -6.76379 -58.4573
rfingers 7.12502
rthumb 19.098 -87.5396
lclavicle -2.03754e-015 -1.09332e-014
lhumerus -28.6155 7.82736 79.9439
lradius 22.4476
lwrist -4.63492
lhand -21.6431 -13.7331
lfingers 7.12502
lthumb 4.75338 16.1936
rfemur -23.3549 7.0652 20.9543
rtibia 9.85089
rfoot -21.5667 -7.181
rtoes -31.0078
lfemur -27.3154 -8.90254 -18.4548
ltibia 19.4057
lfoot -14.0175 6.39049
ltoes -35.4358
153
root 7.57062 16.2445 30.8915 -154.316 -2.00882 177.806
lowerback -27.5044 -2.33297 -5.98282
upperback -1.2264 -1.71536 0.0158542
thorax 14.1786 -1.38939 2.75089
lowerneck -3.65777 -4.24562 -1.2618
upperneck 21.1482 -4.87297 2.74386
head 7.16029 -1.6607 0.817534
rclavicle 1.40143e-014 -8.34896e-015
rhumerus -38.2288 -22.1349 -75.3365
rradius 31.5757
rwrist 2.95318
rhand -7.17404 -56.3551
rfingers 7.12502
rthumb 18.7034 -85.4759
lclavicle 1.40143e-014 -8.34896e-015
lhumerus -28.8277 8.029 79.8573
lradius 22.4464
lwrist -4.62483
lhand -21.3611 -13.455
lfingers 7.12502
lthumb 5.02566 16.4654
rfemur -23.4888 8.30954 20.7023
rtibia 10.3593
rfoot -21.8836 -8.4164
rtoes -30.7127
lfemur -27.738 -9.13538 -18.4376
ltibia 20.3176
lfoot -14.3302 6.45081
ltoes -33.9919
154
root 7.58568 16.2426 30.8843 -154.372 -2.05791 177.874
lowerback -27.3505 -2.32169 -5.88589
upperback -1.25033 -1.74669 0.0675634
thorax 14.0683 -1.39521 2.74681
lowerneck -3.39368 -4.20119 -1.40702
upperneck 21.048 -4.78955 2.77107
head 7.0835 -1.63061 0.861652
rclavicle -5.26779e-015 -2.78299e-014
rhumerus -38.3696 -21.9717 -75.3093
rradius 31.5851
rwrist 3.01985
rhand -6.92043 -56.2068
rfingers 7.12502
rthumb 18.9473 -85.304
lclavicle -5.26779e-015 -2.78299e-014
lhumerus -28.9787 8.43305 79.7305
lradius 22.3008
lwrist -4.95944
lhand -21.0449 -13.5019
lfingers 7.12502
lthumb 5.33096 16.411
rfemur -23.7595 9.28504 20.6834
rtibia 11.2005
rfoot -22.4499 -9.30292
rtoes -29.8295
lfemur -28.1702 -9.15947 -18.2857
ltibia 21.353
lfoot -14.2611 6.72999
ltoes -36.7359
155
root 7.59734 16.2374 30.875 -154.406 -1.96291 177.777
lowerback -27.3066 -2.31793 -5.88735
upperback -1.24043 -1.73772 0.0325061
thorax 14.0542 -1.38909 2.71121
lowerneck -3.03352 -4.11624 -1.61253
upperneck 20.8447 -4.65981 2.855
head 6.95808 -1.58294 0.938498
rclavicle 1.73937e-015 -5.96354e-015
rhumerus -38.4749 -21.62 -75.4076
rradius 31.7311
rwrist 2.63078
rhand -5.97891 -55.8949
rfingers 7.12502
rthumb 19.8526 -84.901
lclavicle 1.73937e-015 -5.96354e-015
lhumerus -29.1282 8.92154 79.5426
lradius 22.2008
lwrist -5.37391
lhand -20.6966 -14.1496
lfingers 7.12502
lthumb 5.6673 15.7546
rfemur -23.8096 11.0442 20.2883
rtibia 11.6222
rfoot -22.7506 -10.8481
rtoes -29.1428
lfemur -28.601 -9.17967 -18.3804
ltibia 22.3678
lfoot -14.1169 6.90151
ltoes -38.3301
156
root 7.6061 16.2308 30.8635 -154.372 -1.73556 177.503
lowerback -27.2989 -2.32966 -6.12589
upperback -1.26604 -1.67748 -0.043342
thorax 14.0173 -1.37649 2.78392
lowerneck -3.15502 -4.16128 -1.48239
upperneck 21.1109 -4.65588 2.52661
head 7.0548 -1.58504 0.809864
rclavicle -1.20762e-014 -2.80286e-014
rhumerus -38.6032 -21.3804 -75.3953
rradius 31.802
rwrist 2.49167
rhand -5.89748 -55.8588
rfingers 7.12502
rthumb 19.9309 -84.8567
lclavicle -1.20762e-014 -2.80286e-014
lhumerus -29.3644 9.0902 79.4737
lradius 22.2092
lwrist -5.40525
lhand -21.2923 -13.979
lfingers 7.12502
lthumb 5.09214 15.9398
rfemur -23.5163 14.6854 19.2727
rtibia 11.2355
rfoot -22.6552 -14.0379
rtoes -28.3199
lfemur -29.0995 -9.30064 -18.7166
ltibia 23.4267
lfoot -14.2734 6.96015
ltoes -37.3613
